<?xml version="1.0" standalone="no"?>
<!DOCTYPE svg PUBLIC "-//W3C//DTD SVG 1.1//EN"
"http://www.w3.org/Graphics/SVG/1.1/DTD/svg11.dtd">
<svg width="61.2797mm" height="61.3118mm" viewBox="-148.682 50.976 61.2797 61.3118" xmlns="http://www.w3.org/2000/svg" version = "1.1">
<title>衣架.123dx</title>
<desc> made with 123D Design </desc>
<path d="M -98.3872 88.5281 L -98.3894 88.5308 L -98.3895 88.5309 L -98.3895 91.4373 L -98.3895 91.4456 L -98.3892 91.4511 L -98.3009 93.3661 L -98.3001 93.3716 L -98.0359 95.2689 L -98.0347 95.2742 L -97.5971 97.1363 L -97.5954 97.1415 L -96.9884 98.951 L -96.9862 98.956 L -96.2156 100.696 L -96.2129 100.701 L -95.2857 102.356 L -95.2826 102.36 L -94.2073 103.914 L -94.2038 103.918 L -92.9905 105.357 L -92.9867 105.361 L -91.6465 106.672 L -91.6424 106.675 L -90.1878 107.845 L -90.1878 109.496 L -90.1878 109.501 L -90.1927 109.498 L -91.9145 108.529 L -91.9191 108.526 L -93.5369 107.379 L -93.5412 107.375 L -95.038 106.06 L -95.0419 106.056 L -96.402 104.589 L -96.4055 104.584 L -97.6146 102.979 L -97.6176 102.974 L -98.663 101.248 L -98.6655 101.243 L -99.5362 99.4138 L -99.5382 99.4083 L -100.225 97.4962 L -100.226 97.4905 L -100.722 95.515 L -100.723 95.5092 L -101.023 93.491 L -101.023 93.4852 L -101.123 91.4456 L -101.123 91.3852 L -101.123 91.3851 L -101.126 91.3878 L -101.136 91.3963 L -101.687 91.9016 L -102.187 92.3338 L -102.637 92.6988 L -102.65 92.7091 L -103.063 93.0188 L -103.838 93.5278 L -103.85 93.5347 L -104.667 93.9497 L -104.673 93.9521 L -105.098 94.1068 L -105.103 94.1084 L -105.539 94.2151 L -105.543 94.2157 L -105.983 94.267 L -105.987 94.267 L -106.424 94.2558 L -106.428 94.2552 L -106.856 94.1741 L -106.86 94.173 L -107.068 94.1039 L -107.271 94.0153 L -107.275 94.0136 L -107.657 93.7869 L -107.66 93.7847 L -107.663 93.7821 L -108.012 93.4991 L -108.015 93.4961 L -108.329 93.1672 L -108.334 93.1604 L -108.614 92.7963 L -109.068 92.0091 L -109.072 92.0016 L -109.246 91.5962 L -109.249 91.5885 L -109.404 91.1267 L -109.406 91.1191 L -109.533 90.568 L -109.534 90.5611 L -109.597 89.9634 L -109.596 89.9563 L -109.567 89.3823 L -109.567 89.379 L -109.519 89.1147 L -109.518 89.1114 L -109.447 88.8553 L -109.445 88.8489 L -109.233 88.3372 L -109.229 88.331 L -108.893 87.7808 L -108.888 87.7747 L -108.422 87.2023 L -108.416 87.1962 L -107.85 86.6443 L -107.842 86.6382 L -106.597 85.6794 L -106.594 85.6774 L -106.593 85.6764 L -106.589 85.6734 L -103.791 85.7191 L -103.783 85.7192 L -103.784 85.7197 L -103.791 85.7227 L -104.262 85.9243 L -104.709 86.1729 L -104.716 86.1775 L -105.134 86.47 L -105.517 86.8031 L -105.523 86.8088 L -105.861 87.1705 L -105.866 87.1771 L -106.151 87.5465 L -106.156 87.5549 L -106.59 88.2995 L -106.594 88.3086 L -106.885 89.0405 L -106.886 89.0451 L -106.985 89.4063 L -107.049 89.7644 L -107.049 89.7689 L -107.073 90.1236 L -107.073 90.1279 L -107.053 90.4792 L -107.053 90.4832 L -107.023 90.6568 L -107.023 90.659 L -106.975 90.8285 L -106.975 90.8306 L -106.91 90.9929 L -106.909 90.9947 L -106.827 91.1469 L -106.826 91.1486 L -106.728 91.2876 L -106.726 91.2891 L -106.611 91.412 L -106.61 91.4132 L -106.478 91.517 L -106.477 91.518 L -106.331 91.6006 L -106.329 91.6014 L -106.175 91.6645 L -106.173 91.6651 L -106.013 91.7103 L -105.848 91.7393 L -105.846 91.7397 L -105.676 91.7538 L -105.674 91.754 L -105.671 91.7539 L -105.324 91.7441 L -105.319 91.7434 L -104.968 91.6925 L -104.608 91.6061 L -104.603 91.6046 L -104.236 91.4811 L -104.231 91.479 L -103.483 91.1133 L -103.478 91.1106 L -103.473 91.1075 L -102.721 90.5714 L -102.716 90.5679 L -102.356 90.2329 L -102.351 90.2289 L -102.017 89.8543 L -102.013 89.8499 L -101.712 89.4414 L -101.708 89.4367 L -101.448 89 L -101.446 88.9975 L -101.445 88.995 L -101.444 88.9935 L -101.124 88.4979 L -101.123 88.4965 L -101.123 87.5917 L -101.123 87.5891 L -101.123 87.5832 L -101.023 85.5436 L -101.022 85.5379 L -100.722 83.5197 L -100.721 83.514 L -100.225 81.5385 L -100.223 81.533 L -99.5362 79.6208 L -99.5337 79.6156 L -98.663 77.7869 L -98.66 77.782 L -97.6146 76.0559 L -97.6111 76.0513 L -96.402 74.4461 L -96.3981 74.4419 L -95.038 72.9743 L -95.0337 72.9705 L -93.5369 71.6561 L -93.5323 71.6528 L -91.9145 70.5052 L -91.9096 70.5024 L -90.1878 69.5337 L -90.1878 71.1847 L -90.1878 71.1895 L -90.192 71.1928 L -91.6465 72.3629 L -91.6504 72.3666 L -92.9905 73.6772 L -92.994 73.6813 L -94.2073 75.1203 L -94.2104 75.1248 L -95.2857 76.6789 L -95.2883 76.6836 L -96.2156 78.3385 L -96.2178 78.3434 L -96.9884 80.0837 L -96.9902 80.0888 L -97.5971 81.8984 L -97.5983 81.9037 L -98.0359 83.7657 L -98.0367 83.7712 L -98.3009 85.6685 L -98.3011 85.674 L -98.3895 87.5891 L -98.3895 88.5254 L -98.3895 88.5281 z  M -145.897 53.7629 L -142.407 53.7629 L -125.897 53.7629 L -125.897 57.2529 L -125.897 73.7629 L -129.387 73.7629 L -145.897 73.7629 L -145.897 70.2729 z  " fill= "none" stroke="rgb(0,0,255)" stroke-width="0.05mm" />
</svg>
