<?xml version="1.0" standalone="no"?>
<!DOCTYPE svg PUBLIC "-//W3C//DTD SVG 1.1//EN"
"http://www.w3.org/Graphics/SVG/1.1/DTD/svg11.dtd">
<svg width="39.0469mm" height="77mm" viewBox="-118.434 56.0054 39.0469 77" xmlns="http://www.w3.org/2000/svg" version = "1.1">
<title>衣架.123dx</title>
<desc> made with 123D Design </desc>
<path d="M -108.487 89.1575 L -107.717 88.6414 L -107.715 88.6402 L -106.896 88.2074 L -106.894 88.2063 L -106.028 87.8541 L -106.026 87.8532 L -111.143 87.7732 L -111.158 87.7729 L -111.161 87.7748 L -112.323 88.5757 L -112.325 88.5775 L -113.46 89.4706 L -113.462 89.4724 L -114.507 90.4475 L -114.509 90.4493 L -114.511 90.4511 L -114.979 90.9659 L -115.384 91.4744 L -115.385 91.4763 L -115.721 91.9659 L -115.722 91.9678 L -115.995 92.4392 L -115.996 92.4411 L -116.378 93.3332 L -116.379 93.3352 L -116.6 94.2569 L -116.6 94.2589 L -116.651 94.7568 L -116.652 94.7589 L -116.659 95.2852 L -116.659 95.2874 L -116.544 96.3539 L -116.544 96.3562 L -116.309 97.318 L -116.308 97.3203 L -116.024 98.1256 L -116.023 98.128 L -115.702 98.8463 L -115.701 98.8487 L -115.315 99.5603 L -115.313 99.5627 L -114.862 100.249 L -114.861 100.251 L -114.347 100.892 L -114.345 100.894 L -113.768 101.474 L -113.766 101.476 L -113.123 101.976 L -113.122 101.977 L -112.414 102.38 L -112.412 102.381 L -112.411 102.381 L -111.653 102.663 L -111.651 102.663 L -110.861 102.814 L -110.86 102.814 L -110.858 102.814 L -110.042 102.835 L -110.039 102.835 L -109.228 102.739 L -109.225 102.739 L -108.429 102.545 L -107.649 102.271 L -107.646 102.27 L -106.139 101.537 L -106.136 101.535 L -106.132 101.533 L -104.717 100.642 L -104.714 100.64 L -103.951 100.091 L -103.948 100.089 L -103.108 99.4389 L -102.184 98.674 L -102.179 98.6693 L -101.162 97.7767 L -101.162 97.777 L -101.162 97.8826 L -101.064 100.504 L -101.063 100.512 L -100.768 103.119 L -100.767 103.126 L -100.277 105.704 L -100.275 105.711 L -99.5929 108.244 L -99.591 108.252 L -98.7201 110.726 L -98.7176 110.733 L -98.7146 110.74 L -97.6602 113.143 L -97.6567 113.149 L -96.4248 115.466 L -95.0225 117.683 L -95.0185 117.69 L -93.4535 119.795 L -93.449 119.801 L -91.7303 121.784 L -91.7253 121.789 L -89.8625 123.637 L -89.8572 123.642 L -87.8609 125.344 L -87.8552 125.349 L -85.7366 126.897 L -85.7305 126.901 L -83.5017 128.285 L -83.4953 128.289 L -81.1688 129.502 L -81.1622 129.505 L -81.1622 129.497 L -81.1622 126.605 L -83.3929 124.915 L -83.3993 124.911 L -85.4875 123.047 L -85.4935 123.042 L -87.4256 121.017 L -87.4312 121.011 L -89.1949 118.838 L -89.1999 118.832 L -90.7839 116.525 L -90.7884 116.518 L -92.1824 114.091 L -92.1863 114.084 L -93.3814 111.554 L -93.3848 111.547 L -94.3732 108.928 L -94.376 108.921 L -95.1515 106.232 L -95.1537 106.224 L -95.7111 103.481 L -95.7127 103.473 L -96.0487 100.695 L -96.0496 100.687 L -96.1618 97.8907 L -96.1622 97.8826 L -96.1622 97.8681 L -96.1622 92.7777 L -96.1621 92.7777 L -96.1581 92.7729 L -96.1581 92.7729 L -96.1622 92.7729 L -96.1622 92.7682 L -96.1622 91.1282 L -96.0499 88.3318 L -96.0496 88.3238 L -95.7137 85.5453 L -95.7127 85.5374 L -95.1553 82.7948 L -95.1537 82.7869 L -94.3783 80.0978 L -94.376 80.0901 L -93.3876 77.4718 L -93.3848 77.4643 L -92.1898 74.9336 L -92.1863 74.9263 L -90.7924 72.4995 L -90.7884 72.4926 L -89.2045 70.1853 L -89.1999 70.1786 L -87.4362 68.0057 L -87.4312 67.9994 L -85.499 65.9748 L -85.4935 65.969 L -83.4053 64.1056 L -83.3993 64.1003 L -81.1685 62.4102 L -81.1622 62.4054 L -81.1622 62.3971 L -81.1622 59.5054 L -83.4887 60.7181 L -83.4953 60.7216 L -85.7242 62.1056 L -85.7305 62.1096 L -87.8491 63.6572 L -87.8552 63.6616 L -89.8515 65.364 L -89.8572 65.3688 L -91.72 67.2163 L -91.7253 67.2216 L -93.4441 69.2038 L -93.449 69.2095 L -95.014 71.3152 L -95.0185 71.3213 L -96.4208 73.5386 L -96.4248 73.545 L -96.4284 73.5516 L -97.6602 75.868 L -97.6632 75.8749 L -98.7176 78.2773 L -99.5885 80.7522 L -99.591 80.7593 L -100.273 83.2925 L -100.275 83.2998 L -100.766 85.8772 L -100.767 85.8845 L -101.062 88.4915 L -101.063 88.4989 L -101.162 91.1207 L -101.162 91.1282 L -101.162 91.1327 L -101.162 92.7176 L -101.475 93.1399 L -101.475 93.1411 L -101.75 93.5893 L -101.75 93.5906 L -101.752 93.5925 L -102.226 94.3604 L -102.228 94.3622 L -102.775 95.0793 L -102.777 95.0811 L -103.398 95.7466 L -103.4 95.7482 L -104.073 96.3446 L -104.075 96.3461 L -104.771 96.8585 L -104.773 96.8598 L -105.476 97.2915 L -105.478 97.2927 L -106.172 97.6472 L -106.174 97.6482 L -106.849 97.9306 L -106.852 97.9314 L -107.525 98.1538 L -107.527 98.1544 L -108.193 98.3137 L -108.195 98.314 L -108.841 98.4047 L -108.843 98.4048 L -109.469 98.4209 L -109.47 98.4208 L -110.093 98.346 L -110.094 98.3458 L -110.395 98.2664 L -110.396 98.2661 L -110.684 98.1547 L -110.685 98.1544 L -110.955 98.0088 L -110.956 98.0084 L -110.956 98.008 L -111.205 97.8256 L -111.205 97.825 L -111.424 97.6086 L -111.424 97.608 L -111.608 97.3633 L -111.608 97.3627 L -111.758 97.0921 L -111.758 97.0914 L -111.873 96.8034 L -111.873 96.8025 L -111.955 96.5031 L -111.955 96.5023 L -112.007 96.1959 L -112.008 96.194 L -112.039 95.5671 L -112.039 95.565 L -111.988 94.9357 L -111.873 94.3143 L -111.873 94.3121 L -111.696 93.675 L -111.696 93.6728 L -111.458 93.0267 L -111.458 93.0245 L -111.162 92.379 L -111.161 92.3769 L -110.804 91.7314 L -110.803 91.7294 L -110.363 91.068 L -110.362 91.0661 L -109.833 90.4046 L -109.832 90.4028 L -109.207 89.7594 L -109.205 89.7578 L -108.489 89.1589 z  " fill= "none" stroke="rgb(0,0,255)" stroke-width="0.05mm" />
</svg>
